<?xml version="1.0" encoding="iso-8859-1"?>
<!-- Uploaded to: SVG Repo, www.svgrepo.com, Generator: SVG Repo Mixer Tools -->
<svg height="800px" width="800px" version="1.1" id="Layer_1" xmlns="http://www.w3.org/2000/svg" xmlns:xlink="http://www.w3.org/1999/xlink" 
	 viewBox="0 0 512 512" xml:space="preserve">
<g transform="translate(1 1)">
	<path style="fill:#FFDD09;" d="M417.133,393.24l-63.147-63.147c-9.387-9.387-11.947-23.04-6.827-34.987
		c0-0.853,0.853-1.707,0.853-2.56c5.12-11.947,16.213-20.48,29.867-20.48h89.6C464.067,318.147,445.293,359.96,417.133,393.24
		L417.133,393.24z M272.067,467.48v-90.453c0-13.653,8.533-25.6,20.48-29.867c0.853,0,1.707-0.853,1.707-0.853
		c11.947-4.267,25.6-1.707,34.133,6.827l64,64C359.96,445.293,318.147,464.067,272.067,467.48L272.067,467.48z M272.067,42.52
		c46.08,3.413,87.893,22.187,121.173,50.347c-18.773,18.773-45.227,44.373-61.44,61.44c-9.387,9.387-23.04,11.947-34.987,6.827
		c-1.707-0.853-2.56-0.853-4.267-1.707c-12.8-5.12-20.48-17.067-20.48-29.867L272.067,42.52L272.067,42.52z M467.48,237.933h-86.187
		c-12.8,0-25.6-7.68-29.867-20.48c-0.853-1.707-1.707-3.413-1.707-5.12c-5.12-11.947-1.707-25.6,6.827-34.987l61.44-60.587
		C445.293,150.04,464.067,191.853,467.48,237.933L467.48,237.933z M237.933,127c0,12.8-7.68,25.6-19.627,30.72
		c-1.707,0.853-4.267,1.707-5.973,2.56c-11.947,5.12-26.453,2.56-34.987-6.827L116.76,92.867
		c33.28-28.16,75.093-46.933,121.173-50.347V127z M237.933,467.48c-46.08-3.413-87.893-22.187-121.173-50.347l63.147-63.147
		c9.387-9.387,23.893-11.947,35.84-6.827c0.853,0,1.707,0.853,2.56,0.853c11.947,5.12,19.627,17.067,19.627,29.867V467.48z
		 M42.52,272.067c27.307,0,64,0,87.893,0c13.653,0,24.747,8.533,29.867,20.48c0,0,0,0.853,0.853,0.853
		c5.12,12.8,3.413,27.307-5.973,36.693l-62.293,62.293C63.853,359.96,45.933,318.147,42.52,272.067L42.52,272.067z M92.013,116.76
		l61.44,61.44c9.387,9.387,11.947,23.04,6.827,35.84c0,0.853-0.853,1.707-0.853,2.56c-5.12,12.8-17.067,21.333-30.72,21.333H42.52
		C45.933,191.853,63.853,150.04,92.013,116.76L92.013,116.76z M255,7.533C118.467,7.533,7.533,118.467,7.533,255
		S118.467,502.467,255,502.467S502.467,391.533,502.467,255S391.533,7.533,255,7.533L255,7.533z"/>
	<path style="fill:#FD9808;" d="M255,7.533c-2.56,0-5.973,0-8.533,0C379.587,11.8,485.4,121.027,485.4,255
		S379.587,497.347,246.467,502.467c2.56,0,5.973,0,8.533,0c136.533,0,247.467-110.933,247.467-247.467S391.533,7.533,255,7.533"/>
	<path style="fill:#FFFFFF;" d="M255,7.533c2.56,0,5.973,0,8.533,0C130.413,12.653,24.6,121.027,24.6,255
		s105.813,242.347,238.933,247.467c-2.56,0-5.973,0-8.533,0C118.467,502.467,7.533,391.533,7.533,255S118.467,7.533,255,7.533"/>
	<path d="M255,511C114.2,511-1,395.8-1,255S114.2-1,255-1s256,115.2,256,256S395.8,511,255,511z M255,16.067
		C123.587,16.067,16.067,123.587,16.067,255S123.587,493.933,255,493.933S493.933,386.413,493.933,255S386.413,16.067,255,16.067z"
		/>
	<path d="M128.707,246.467H42.52c-2.56,0-4.267-0.853-5.973-2.56c-1.707-1.707-2.56-4.267-2.56-6.827
		C37.4,191,55.32,147.48,86.04,111.64c1.707-1.707,3.413-2.56,5.973-3.413c2.56,0,5.12,0.853,5.973,2.56l61.44,61.44
		c11.947,11.947,15.36,29.013,8.533,45.227l-0.853,1.707C161.133,236.227,145.773,246.467,128.707,246.467z M51.907,229.4h77.653
		c10.24,0,18.773-5.973,22.187-16.213l0.853-2.56c3.413-9.387,1.707-19.627-5.12-26.453L92.867,129.56
		C70.68,158.573,56.173,192.707,51.907,229.4z"/>
	<path d="M199.533,171.373c-10.24,0-21.333-4.267-29.013-11.947L109.933,98.84c-1.707-1.707-2.56-4.267-2.56-5.973
		c0-2.56,0.853-4.267,2.56-5.973c35.84-30.72,79.36-48.64,126.293-52.907c2.56,0,5.12,0.853,6.827,2.56
		c2.56,0.853,3.413,3.413,3.413,5.973v85.333c0,17.067-10.24,32.427-25.6,38.4c-1.707,0.853-3.413,1.707-5.12,2.56l0,0
		C210.627,170.52,205.507,171.373,199.533,171.373z M129.56,93.72l53.76,53.76c6.827,6.827,17.067,9.387,25.6,5.12l0,0
		c1.707-0.853,4.267-1.707,5.973-2.56c8.533-3.413,14.507-11.947,14.507-22.187V51.907C192.707,56.173,158.573,70.68,129.56,93.72z"
		/>
	<path d="M308.76,172.227c-5.12,0-10.24-0.853-15.36-3.413c-1.707-0.853-2.56-0.853-4.267-1.707l0,0
		c-15.36-5.973-25.6-21.333-25.6-37.547V42.52c0-2.56,0.853-4.267,2.56-5.973c1.707-1.707,4.267-2.56,6.827-2.56
		c46.933,3.413,90.453,22.187,126.293,52.053c1.707,1.707,2.56,3.413,3.413,5.973c0,2.56-0.853,5.12-2.56,5.973l-61.44,61.44
		C330.093,167.96,319.853,172.227,308.76,172.227z M295.96,151.747c1.707,0.853,2.56,0.853,4.267,1.707
		c8.533,3.413,18.773,1.707,25.6-5.12L380.44,93.72c-29.013-23.04-63.147-37.547-99.84-41.813v77.653
		C280.6,138.947,286.573,147.48,295.96,151.747z"/>
	<path d="M92.013,401.773L92.013,401.773c-2.56,0-5.12-0.853-6.827-3.413C55.32,362.52,36.547,319,33.133,272.92
		c0-2.56,0.853-5.12,2.56-6.827c1.707-1.707,4.267-2.56,6.827-2.56h87.893l0,0c16.213,0,31.573,10.24,37.547,25.6l0.853,0.853
		c6.827,16.213,3.413,34.133-7.68,46.08L98.84,398.36C97.133,400.067,94.573,401.773,92.013,401.773z M51.907,280.6
		c4.267,36.693,18.773,70.827,40.96,99.84l55.467-55.467l0,0c6.827-6.827,8.533-17.92,4.267-27.307v-1.707
		c-4.267-9.387-12.8-15.36-22.187-15.36l0,0H51.907z"/>
	<path d="M467.48,246.467h-86.187c-17.067,0-32.427-10.24-37.547-25.6c-0.853-1.707-0.853-3.413-1.707-5.12
		c-5.973-14.507-2.56-32.427,9.387-44.373l0,0l61.44-60.587c1.707-1.707,4.267-2.56,5.973-2.56c2.56,0,4.267,0.853,5.973,2.56
		c30.72,35.84,48.64,79.36,52.053,126.293c0,2.56-0.853,5.12-2.56,6.827C472.6,245.613,470.04,246.467,467.48,246.467z
		 M362.52,184.173c-6.827,6.827-8.533,17.067-5.12,25.6c0.853,1.707,1.707,3.413,2.56,5.973
		c3.413,8.533,11.947,14.507,22.187,14.507H459.8c-4.267-36.693-18.773-70.827-41.813-99.84L362.52,184.173z"/>
	<path d="M417.133,401.773c-2.56,0-4.267-0.853-5.973-2.56l-63.147-63.147c-11.947-11.947-15.36-29.013-8.533-44.373l0.853-2.56
		c5.973-15.36,21.333-25.6,37.547-25.6h89.6c2.56,0,4.267,0.853,5.973,2.56c1.707,1.707,2.56,4.267,2.56,6.827
		c-3.413,46.933-22.187,90.453-52.053,126.293C422.253,400.92,419.693,401.773,417.133,401.773L417.133,401.773z M377.88,280.6
		c-9.387,0-17.92,5.973-21.333,14.507l-0.853,3.413c-3.413,8.533-1.707,18.773,5.12,25.6l56.32,56.32
		c23.04-29.013,36.693-63.147,41.813-99.84H377.88z"/>
	<path d="M237.933,476.013C237.933,476.013,237.08,476.013,237.933,476.013c-47.787-3.413-91.307-22.187-127.147-52.907
		c-1.707-1.707-2.56-3.413-2.56-5.973s0.853-4.267,2.56-5.973l63.147-63.147c11.947-11.947,29.867-15.36,45.227-8.533l2.56,0.853
		c15.36,5.973,24.747,21.333,24.747,37.547v90.453c0,2.56-0.853,4.267-2.56,5.973C242.2,475.16,240.493,476.013,237.933,476.013z
		 M129.56,416.28c29.013,23.04,63.147,37.547,99.84,41.813v-81.067c0-9.387-5.973-17.92-14.507-22.187l-2.56-0.853
		c-8.533-4.267-19.627-1.707-26.453,5.12L129.56,416.28z"/>
	<path d="M272.067,476.013c-2.56,0-4.267-0.853-5.973-2.56c-1.707-1.707-2.56-4.267-2.56-5.973v-90.453
		c0-17.067,10.24-32.427,26.453-38.4l1.707-0.853c14.507-5.973,31.573-2.56,43.52,9.387l64,64c1.707,1.707,2.56,4.267,2.56,5.973
		s-0.853,4.267-3.413,5.973C362.52,454.68,319,472.6,272.067,476.013C272.92,476.013,272.067,476.013,272.067,476.013z
		 M306.2,352.28c-2.56,0-5.973,0.853-8.533,1.707l-1.707,0.853c-9.387,3.413-15.36,11.947-15.36,22.187v81.067
		c36.693-4.267,70.827-18.773,99.84-40.96l-57.173-57.173l0,0C318.147,354.84,312.173,352.28,306.2,352.28z"/>
	<path d="M263.533,314.733c0,5.12-3.413,8.533-8.533,8.533s-8.533-3.413-8.533-8.533c0-5.12,3.413-8.533,8.533-8.533
		S263.533,309.613,263.533,314.733"/>
	<path d="M323.267,255c0,5.12-3.413,8.533-8.533,8.533c-5.12,0-8.533-3.413-8.533-8.533s3.413-8.533,8.533-8.533
		C319.853,246.467,323.267,249.88,323.267,255"/>
	<path d="M263.533,195.267c0,5.12-3.413,8.533-8.533,8.533s-8.533-3.413-8.533-8.533c0-5.12,3.413-8.533,8.533-8.533
		S263.533,190.147,263.533,195.267"/>
	<path d="M203.8,255c0,5.12-3.413,8.533-8.533,8.533c-5.12,0-8.533-3.413-8.533-8.533s3.413-8.533,8.533-8.533
		C200.387,246.467,203.8,249.88,203.8,255"/>
</g>
</svg>